<svg id="Lager_1" data-name="Lager 1" xmlns="http://www.w3.org/2000/svg" viewBox="0 0 512.46 511.2"><defs><style>.cls-1{fill:none;stroke:#010101;stroke-miterlimit:10;stroke-width:1.5px;}</style></defs><path class="cls-1" d="M216.62,390.85c-2.47-1.77-4-.41-13.79-3.08a56.35,56.35,0,0,1-8.3-2.94c-1.59-.72-6.12-2.74-5.87-3.57.17-.59,2.78-.7,5,.08,5.75,2,7.78,9.44,8.17,10.89.25.93,1.07,4.18.34,10.39-.46,3.94-1.52,8.78-5.45,17.87-.83,1.94-3,6.75-7.83,15.66-5.14,9.42-7.72,14.14-11.4,19.23s-7.62,9.27-15.32,17.36a123.67,123.67,0,0,1-9.7,8.52,19.47,19.47,0,0,1-7.66,4.25c-1.26.33-4.81,1.26-5.62,0-.7-1.1,1-3.28,6.64-10.38,2.15-2.73,3.23-4.34,5.62-7.15,7-8.25,10.15-17.78,23-41.87.71-1.34,2.8-4.8,5-9.73A81.53,81.53,0,0,0,186.53,375a20.15,20.15,0,0,1-1.87,1,23.32,23.32,0,0,1-9,2.22c-9.84.59,5.71.38-16.85,1.36-15.28.66-18,.56-20.77.34a78.61,78.61,0,0,1-10.38-1.36c-9.72-2-14.57-3-18.73-4.94-1.55-.73-4-2-5.1-1s-.54,3-.34,3.91c0,0,0,.16.85,16.52.29,5.8-.77,10.15-1.87,14.63-1.81,7.39-4.47,12.3-8.68,20.09-3.88,7.17-6.1,11.27-10.39,16.34-6.44,7.62-9.66,11.44-15.15,12.94-3.61,1-7.31.79-9.36,3.74a7.36,7.36,0,0,0-1,5.45c1,4.59,6.82,6.24,7.66,6.46,1.39.38,6.58,1.5,16.34-5.1,3.33-2.25,9.89-7.23,17.7-19.07,3.87-5.86,9.79-15,13.45-28.08.85-3,4.3-16,6.47-24.17a32.49,32.49,0,0,1,5.62-11.75c3-4,7.16-7.24,8.25-6.49.65.45.37,2.49.19,3.86-.11.76-.26,1.33-.34,2.46a16.18,16.18,0,0,0,0,2c.09,2.29-.52,9.35-.76,11.41-.42,3.74-1.71,9.18-5.78,20.43a215.26,215.26,0,0,1-9.71,23.83,194.25,194.25,0,0,1-11.4,20.08C96.32,476.64,88,486.44,88.66,487c.42.36,3.14-3.14,9.53-7.32,4-2.63,5.45-2.87,9-5.1a56.46,56.46,0,0,0,11.24-9.53c5.93-6.13,9.29-11.57,12.76-17.2,4.14-6.7,6.79-11,9-17.53,1.5-4.37,1.5-5.91,3.92-12.93,1-3.05,1.13-3,4.25-11.24,4.27-11.24,4.84-13.25,5.28-15,1.37-5.4,1.81-9.77,2-9.74a73.89,73.89,0,0,0-.38,10.08,39.16,39.16,0,0,0,.93,8.17,17.71,17.71,0,0,1,.9,5.92,14.87,14.87,0,0,1-.51,3.15c-1.9,7.3-1.42,7.06-2.94,12a152.44,152.44,0,0,1-6.89,17.87c-4.06,8.8-7.55,15.11-12,23.11-5.62,10.09-9.75,21-15.7,30.89-.34.55-1.61,2.66-1.15,3.07s2.68-1.36,5.87-3.71c5.09-3.74,5.76-3.76,8.55-5.87,2.6-2,5.14-4.3,11.11-11.49a200.33,200.33,0,0,0,13.27-17.23c11.37-16.77,19.07-28.14,22-43.41,2-10.75,1.42-22.05,4.73-29.23.15-.33,1.5-3.23.63-4s-2.78,1.22-6.38,2.17c-2.15.57-3.29.38-6.51.39-4.18,0-3.77.33-11.23.76-5.61.33-8.5.5-12.51.38a79.06,79.06,0,0,1-12.26-1.14c-3.88-.7-3.77-1-12-3.2-10.06-2.67-11.76-2.61-14.17-4.85a16,16,0,0,1-4.47-7.91c-1.38-5.82,1-10.78.38-11-.43-.15-1.58,2.49-3.31,6-3.26,6.57-4,6.94-7.54,14-1.74,3.51-1.71,3.74-3.57,7.66a183,183,0,0,1-10.34,19.28,164.8,164.8,0,0,1-9.83,13.91,116.87,116.87,0,0,1-12.13,13.79A102.62,102.62,0,0,1,42.87,443c-13.17,8.44-24.45,11.74-24.25,12.26.13.37,5.81-1.25,11.49-3.32A136.68,136.68,0,0,0,52.7,441.26c7.08-4.16,14.07-8.25,22-15.58A109.08,109.08,0,0,0,91.13,406a117.51,117.51,0,0,0,10.59-18.76c2.83-6.39,4.24-9.59,4.47-12.39.82-10-5.5-14.14-3.7-24.38a37.89,37.89,0,0,1,2.42-7.53c2.73-7,4.49-7.92,6.77-13.41a34.18,34.18,0,0,0,3.19-14.93c-.21-5.2-1.76-6.39-2.68-12.64a45.45,45.45,0,0,1,0-13.36" transform="translate(-17.86 -16.77)"/><path class="cls-1" d="M180.94,52.53a10.87,10.87,0,0,0-2.62,1.21c-.82.54-.94.79-2.55,2-.63.49-1.19.92-2,1.47-1.23.83-1.27.73-2.3,1.46a8.79,8.79,0,0,1-1.72,1.15,3.14,3.14,0,0,1-1.73.39,2.87,2.87,0,0,1-1.66-1.09,9.12,9.12,0,0,1-2-3.7,8.62,8.62,0,0,1,.2-5.11,9.68,9.68,0,0,1,1.21-2.17A13,13,0,0,1,167.72,46a56.17,56.17,0,0,1,7.79-6c1.22-.74,1.27-.72,7.15-3.83,6.47-3.42,6.66-3.58,8-4.08,1-.41,1.52-.54,8.59-2.34,7.52-1.92,8-2,8.85-2.22,3.92-.84,6.89-1.26,9.71-1.66,1.79-.25,3.38-.44,13.06-1.4l10.87-1.06c5.23-.53,8.27-.83,12.39-1.28,7.21-.79,7.37-.9,10.53-1.15,4.11-.33,7.21-.42,10.78-.51,5.72-.15,5.74,0,13.77-.13,4.83-.08,7.25-.12,10-.21,4.16-.13,5.38-.23,7.7-.13a68.36,68.36,0,0,1,8.43,1c8.82,1.39,7.89.95,14.08,2,7.32,1.25,11,1.87,13,3,3.37,1.83,6.15,4.5,9.87,8.09,2,2,2.4,2.51,4.68,4.59,3.94,3.6,4.5,3.46,7,5.87,3.73,3.62,2.76,4.22,6.73,8.17,3,3,3.94,3.06,6.12,5.88a46.49,46.49,0,0,1,3.49,5.57c1.12,1.93,2.42,4.19,3.71,6.81s1.89,4.24,4.89,12.55c2.08,5.77,3.12,8.65,3.57,10,1.64,4.7,3.14,9,4.86,14.68,1.08,3.58,2,7.11,3.95,14.17,1.45,5.35,2.18,8,2.94,11.11,1.2,4.86,2,8.45,3.19,14.17,1.29,6,2,9.11,2.43,11.74.28,1.67.36,2.24,1.66,11.24.87,6.1,1.31,9.15,1.53,10.59.94,6.39,1.11,7.22,2.17,14.3,1,6.56,1.47,9.89,1.66,12.13.27,3.25.31,5.43.38,12.64.09,9.59.14,14.39.13,15.95-.06,8.56-.12,18-1.15,30.26-.65,7.7-1.51,14.44-1.79,16.6-.68,5.22-1.12,7.75-1.91,13.78-.57,4.3-.55,4.68-1.66,14.3-.83,7.12-1.47,12.49-2.05,17.23-1,8-1.44,12-1.91,15.58-1.18,9-1.28,8.62-2.55,18.38-1,7.76-1.14,9.45-2,15.58-.68,4.64-.85,5.26-1.66,10.59-1.07,7.06-1.76,12.46-2.17,15.58-.26,2.05-1,8.54-2.42,21.44a113.9,113.9,0,0,0-1,13.15,87.53,87.53,0,0,0,.64,10.85c.18,1.56.09.44,2.29,11.75a14.82,14.82,0,0,0,2.3,6.13,10.89,10.89,0,0,0,3.19,3.06,12,12,0,0,0,4.6,1.4,20,20,0,0,0,5.62.26,18.9,18.9,0,0,0,6.12-1.66c2.32-1.1,3.67-2.38,6.26-4.85a58.88,58.88,0,0,0,5.74-5.87,6.52,6.52,0,0,1,1.34-1.34c.59-.5.88-.62,1.18-.61a1.62,1.62,0,0,1,1,.57,2.75,2.75,0,0,1,.6,1.18,4.22,4.22,0,0,1,.16,1.25c0,1.35.18,2.7.16,4.05-.07,5.3,0,4.82-.06,6a43.13,43.13,0,0,1-.7,4.6,56.09,56.09,0,0,1-1.6,6.64,39.38,39.38,0,0,1-3.61,7.91,48.4,48.4,0,0,1-6.67,9c-3,3.28-4.47,4.15-5.45,4.63a18.62,18.62,0,0,1-5.11,1.41,22.45,22.45,0,0,1-8.08.51,26.19,26.19,0,0,1-5.53-1.83,42.62,42.62,0,0,1-6.81-3.41,16.37,16.37,0,0,1-3.1-2.3,14.91,14.91,0,0,1-2.73-3.87c-2-3.78-1.71-4.74-3.44-8.08-1.22-2.36-1.58-2.28-3-4.77a36.14,36.14,0,0,1-3.06-7.32,51.46,51.46,0,0,1-2.05-10.72,77.18,77.18,0,0,1-.51-9.19c0-3.11.23-3.75.77-10.73.39-5,.27-4.59.68-10,.45-6.07.68-9.1,1.11-12a95.39,95.39,0,0,1,2.46-11.4c3.31-12.64,5.24-18,7.92-27.92,2-7.41,1.59-7.13,3.57-14.47,1.46-5.37,2.15-7.37,4.68-16.59.82-3,1.5-5.45,2.39-8.85.62-2.39,1.84-7.11,3.06-12.43,1.41-6.15,1.34-6.66,3.83-18.81,1.38-6.74,1.34-6.25,2.55-12.25,1.07-5.24,2.09-10.28,3.24-16.68,1.07-6,1.9-11.41,2.64-16.09.35-2.26.66-4.29,1.19-7.66.86-5.53,1.31-8.32,1.44-9.19a194.59,194.59,0,0,0,1.88-23c.06-2.15,0-8.1-.09-20-.07-8.3-.13-10.75-.25-13.62-.25-5.55-.42-5.35-1.11-15.31-.85-12.19-.76-14.86-2-20.69-.62-3.05-.74-2.75-1.7-7.23-1.56-7.25-1.63-9.75-2.64-15.32a113.44,113.44,0,0,0-4.76-18.47c-1.76-4.94-2.07-4.55-5.2-12.85-2.08-5.52-2.52-7.24-4.17-10.89a87.34,87.34,0,0,0-5.61-10.38C376.86,58.54,377,57.3,371.81,50.7c-2.36-3-4.1-4.9-7.41-9.44-4.95-6.81-4.67-7.48-7.06-9.71-4.1-3.82-8.62-5.25-14.3-7.06-5-1.59-5.17-.9-12.76-2.89-2.65-.7-5.42-.76-8.09-1.37a9,9,0,0,0-2.3-.08c-.85.06-1.07.17-1.19.34-.3.43.09,1.19.56,2A32,32,0,0,0,321,25.34c.36.49.64.84.71.93a22,22,0,0,1,2.72,5.45c.59,1.82,1,3,1.34,4.32.25.88.46,1.73.46,1.73l0,.17c.15.62,1.09,4.54,1.44,6.63A58.74,58.74,0,0,1,328.19,61a33.41,33.41,0,0,1-1,5c-.63,2.23-1.68,5.06-2,5-.19,0-.11-.8.25-4.72.55-5.89.53-5.78.64-6.76.35-3,.47-3.27.64-5.37a18.46,18.46,0,0,0-.13-5.49,18.5,18.5,0,0,0-.93-2.91c-.52-1.37-.66-1.43-.73-1.43-.32,0-.33,1.53-.64,3.83-.39,2.9-.65,2.55-.76,4.22a32.67,32.67,0,0,0,.51,5.87c.18,1.41.34,2.44.38,2.68.18,1.17.53,3.86.26,13-.12,3.92-.21,4.48-.26,7.92,0,2.72-.09,3.9,0,5.49.11,1.94.29,2.93.64,5.74.27,2.13.62,4.93.77,6.89.17,2.33-.14,5.63-.77,12.13-.74,7.63-1,8.68-1.28,9.58-.63,2.1-1.13,2.86-2.29,6.63-.36,1.17-1,3.14-1.54,5.62s-.69,3.68-1.27,7.41c-.75,4.73-1.12,7.1-1.66,9.44a43.26,43.26,0,0,1-2.68,8.81c-1.63,3.62-3.6,6.33-3.19,6.64.15.12.52-.26,2.17-1.28a8.62,8.62,0,0,1,2.8-1.4,4.69,4.69,0,0,1,3.07.76c2.61,1.52,3.42,4.41,3.57,4.34s-.33-2.76-2.3-5.87c-1.6-2.53-2.71-3-7.91-7.91-3.32-3.13-3.22-3.27-5.11-4.85-3.16-2.66-7.24-5.45-7.66-5-.28.32,1.38,2,4.09,5.57a88.81,88.81,0,0,1,5.1,7.49c2.86,4.78,4,8.84,6,15.83a59.44,59.44,0,0,1,2,9.53,49.41,49.41,0,0,1-.17,9.36c-.65-1.74-1.73-4.35-2.72-7.65-2.2-7.39-3.3-11.09-3.91-12.94-1.77-5.36-2.43-5.34-7-15.49-1.91-4.25-6.8-15.42-6.3-15.66s4.32,5.74,7.15,13.28c2.73,7.27,3.49,13.54,4.25,20.25.6,5.23,1.3,9,.86,13.79-.08.8-.17,1.53-1,6.3-1.45,8.06-2.18,12.09-3.23,16.85-1.2,5.41-2.24,9.29-3.4,13.62-2.75,10.23-5.15,17.66-7.32,24.34-3.37,10.36-4.62,13.28-5.45,15.14a113.52,113.52,0,0,1-6.3,11.92c-3.43,5.87-8.14,14.77-12.93,24.68a166.3,166.3,0,0,0-6.81,15.32c-1.26,3.32-1.9,5.37-4.6,13.45-3.4,10.18-3.71,10.43-4.59,13.61-1.72,6.19-1.27,6.6-3.07,12.94-1.1,3.9-1.29,3.8-3.91,11.74-2.23,6.76-2.45,7.89-4.6,14.47-1.45,4.43-2.45,7.28-4.42,12.94-8.81,25.18-8.2,23.72-8.86,25.36a229.83,229.83,0,0,1-11.91,25.19,139.81,139.81,0,0,1-9,15.15c-2.93,4.19-6.3,7.93-12.94,15.49-.87,1-3.89,4.43-8,8.85-7.61,8.19-9.84,10-11.06,10.89a82.51,82.51,0,0,1-9,5.79c-1.65.95-.32.13-7.15,3.75a21,21,0,0,1-5.28,2.21c-.27.06-4.62,1.09-5.1,0-.25-.55.63-1.4,2.38-3.06,4.75-4.54,7.13-6.82,7.32-7,.52-.47-1.28,1.12,5.61-5.11,7.65-6.91,7.75-6.95,9-8.17,1.13-1.09,4.49-4.35,8.17-8.68,2.77-3.26,5.4-7.07,10.55-14.55,5.62-8.17,7-10.55,7.74-11.92,2.29-4.11,2.48-5.32,4.77-9.87,2.46-4.89,4-6.29,7.74-13.15,2.65-4.85,1.59-3.94,6-12.89,2.25-4.57,3.07-5.9,5.75-11.49,2-4.14,3-6.38,3.83-8.56,1.37-3.41,1.78-4.92,2.68-7.4,2-5.46,3.15-6.9,6.51-14,1.91-4.05,3.31-7.47,6.13-14.3,2.58-6.27,3.12-7.91,6-15.06,2.95-7.35,4-9.08,6.13-14.81,1-2.72,1.25-3.66,2.68-7.54,1.06-2.88,2-5.36,3.95-10.21,3-7.43,4.45-11.15,5.37-13.27,3.34-7.76,4.16-8.5,6.89-14.81,1.29-3,1.1-2.85,5.36-14.3,1.29-3.47,2-5.33,2.94-7.87A106.39,106.39,0,0,0,286.19,250c.24-.86.46-1.76.46-1.76.49-2,.8-3.77,2.48-11.26,1.31-5.84,2.1-9.25,3.19-13.79,2.15-9,2.15-8.33,2.81-11.49a134.47,134.47,0,0,0,2.3-17.36c.29-3.55.45-8.41.76-18.13.13-4.12.3-10,.13-17.49-.16-6.94-.47-9.31-1.32-12a31.54,31.54,0,0,0-6-10.39c-4.87-6.18-11.78-14.78-24.51-23.14-1.65-1.09-5.75-3.4-14-8-9.25-5.21-10-5.39-16.68-9.2-10-5.72-9-5.75-16.85-10-6.75-3.7-8.41-4.2-12.59-7.15s-5.45-4.52-9.54-7.32c-3.64-2.49-5.25-2.79-11.74-6.29-4.89-2.64-7.32-4-8.68-4.94-4.35-3-8.49-6.8-9.34-6.06-.16.13-.22.45-.32,1a4.9,4.9,0,0,0,0,1.79c.28,1.59-.61,4.26-1.15,5.49-.83,1.92-1.29,1.51-3.06,4.47-1.12,1.87-1,2.05-2.05,3.83a41.59,41.59,0,0,1-2.93,3.95c-.41.54-1,1.35-3.45,5.37-4.08,6.67-3.77,6.6-5.62,9.32-2,2.9-2.32,3-3.83,5.48-.91,1.51-1,1.85-3.06,5.75-1.47,2.79-1.57,2.89-3.57,6.64-2.22,4.14-3.33,6.21-3.58,6.76-1.31,2.9-1,3.2-3.7,14.3-1.05,4.3-1.47,5.81-1.28,8.3a18.1,18.1,0,0,0,1.66,6.38c1.09,2.28,1.9,2.66,3.32,5.36a28.3,28.3,0,0,1,2,5.11,32.35,32.35,0,0,1,2,12.85,33.15,33.15,0,0,1-4.76,13.79c-.62.95-1.42,2.06-3.58,5.36s-2.25,3.57-3.23,4.94c-2,2.76-2.57,3-4.68,5.78-1.42,1.85-2.39,3.36-4.26,6.3-2.64,4.16-3.25,5.43-4.85,8A90.53,90.53,0,0,1,102,225.77c-2.11,2.23-3.86,3.78-4.47,6.63a12,12,0,0,0,.77,6.77,11,11,0,0,0,4.08,5.74c2.68,1.74,5.57,1.42,9.19,1a17.46,17.46,0,0,0,7.41-2.05,36,36,0,0,0,5.87-4.08,5.48,5.48,0,0,1,2-1.41c1.54-.51,2.78.07,4.66.51a25.86,25.86,0,0,0,5.3.52,30.7,30.7,0,0,0,8.87-1c2.76-.72,4.2-1.11,5.75-2.42a9,9,0,0,0,3.06-4.92,6.57,6.57,0,0,0-.19-4c-.83-2-2.63-2.89-4.41-3.76a9.29,9.29,0,0,0-10.34.32,10.64,10.64,0,0,0-3.19,2.74,10.06,10.06,0,0,0-1.72,3.57c-.52,2.18.16,3-.57,5.37a7.1,7.1,0,0,1-.83,1.91c-1,1.53-2.07,1.49-3.58,3-1.09,1.09-.66,1.22-1.91,2.62-1.42,1.59-2,1.47-3.32,2.87a34.08,34.08,0,0,0-4.34,8.11,8.8,8.8,0,0,0,.63,5.49,8.08,8.08,0,0,0,1.72,2.26,10.57,10.57,0,0,0,2.56,1.82,30.53,30.53,0,0,0,6.38,2.49,28.65,28.65,0,0,0,5.49,1.09,37.31,37.31,0,0,0,5.43-.07c2.79-.14,4.15-.27,7.4-.51,3.9-.28,5.85-.42,7.28-.45.91,0,4.09.09,5.24.14h0c.29,0,1.2,0,2.36.18a41.86,41.86,0,0,1,5.93,1c2.27.63,3.83,1.09,5.3,2.49a7.74,7.74,0,0,1,2.3,3.89,8.19,8.19,0,0,1-.13,3.77,13.22,13.22,0,0,1-3.51,6.45,15.4,15.4,0,0,1-4.15,2.87,22.65,22.65,0,0,1-5.23,1.91,40.27,40.27,0,0,1-5.88.71c-5.18.49-4.9.54-7.21.7a46.39,46.39,0,0,1-6.7.19c-.59,0-.62-.06-4.85-.57-3-.37-4.55-.56-5.36-.64-1.56-.16-3.59-.36-6.26-.45-1.14,0-3-.1-5.42,0-2.62.1-4.84.35-6.52.58-2.09.28-2.83.08-3.82.63a5.23,5.23,0,0,0-2.43,2.94,5.3,5.3,0,0,0,.13,3.38c.95,2.41,3.58,3.39,5.81,4.22a19.74,19.74,0,0,0,4,1,71,71,0,0,0,11.1.76c2.21,0,3.68,0,5.75-.13s2.62-.32,5.17-.57c1.82-.17,1.93-.12,6.83-.38,5.26-.28,6.41-.41,7.21-.51a47.08,47.08,0,0,0,13.85-3.83A73.59,73.59,0,0,0,181,291.19a40.3,40.3,0,0,0,4.4-3c2.71-2.14,4.07-3.21,4.79-5.1a9.11,9.11,0,0,0-.19-6.39c-.71-1.82-1.93-3.67-2.36-3.51-.22.09-.13.67-.13,1.66a18.91,18.91,0,0,1-.57,4.15,21.8,21.8,0,0,1-2.05,5.36,34.63,34.63,0,0,1-3.06,5.49c-3.26,4.59-7.64,7.2-7.85,7s2.36-2.12,5.62-6.32a42.35,42.35,0,0,0,5-7.79c2.29-4.7,4.29-8.82,2.75-13a12.26,12.26,0,0,0-3.64-4.85,14.17,14.17,0,0,0-4.85-2.55c-7.37-2.48-11.06-3.71-15.64-4.4s-7.74-1.17-12.13-.71c-3.38.36-4.42,1-8.17,1-3.16,0-2.62-.38-8.61-.77-4.24-.27-6-.15-7.92-1.47a8.22,8.22,0,0,1-2.62-2.87,2.74,2.74,0,0,1-.51-2,2.57,2.57,0,0,1,1-1.34c2.31-1.87,3.47-2.81,3.83-3a20.32,20.32,0,0,1,3.89-1.6,32.12,32.12,0,0,1,3.64-1c2.8-.6,3.24-.09,5.87-.64a25.57,25.57,0,0,0,3.89-1.21,24.41,24.41,0,0,0,4.28-1.92,19.23,19.23,0,0,0,3.38-2.49c2.82-2.6,4.71-5.95,4.41-6.19s-1.83,1.05-2.75,2.81a8.54,8.54,0,0,0-.7,4.85,13.83,13.83,0,0,0,1.4,4.85,21.51,21.51,0,0,0,3.32,5,41.12,41.12,0,0,0,4.79,4.59c2.45,2.14,2.38,1.86,4,3.32a27.1,27.1,0,0,1,5,5.74,23.18,23.18,0,0,1,2,4c.35.93,1,2.86,1.66,9.72.51,5.54.29,6.62-.51,7.4-1.19,1.16-3.4,1.43-3.92.68-.35-.5.65-1.3,1.88-3.74.58-1.17,2-3.89,1.19-4.6-.31-.28-.79-.07-2.13.17s-2.5.22-3.75.34c-1.43.14-3.79.33-7.82.52l.59-11a9.16,9.16,0,0,1-.85,4.76,24.62,24.62,0,0,1-1.7,2.64c-.78,1.14-1.42,2.08-1.87,2.72H150.7l2.64-10a17.34,17.34,0,0,1-3.06,8.77c-.33.46-.68.88-1,1.27l-5.88.09,1.45-9.45-2.47,9.62-5.27.08.85-9.27-3-.26-1.36,7.49,7.06-.25.34,3.06h-6.13a20.19,20.19,0,0,1-2.21-.51c-1.71-.5-2.06-.87-3.4-1.28a12.75,12.75,0,0,0-3.92-.51c-2.15.07-3,1.15-3.66.68s-.38-2.22-.17-3.32a44,44,0,0,0,.51-10.29c.14,0,.25,2.57.17,12.42l9.87.77,9.71-.85-.09,1.19,25.19.59,3.58-10.89a20.78,20.78,0,0,1,2.55,3.75,16.56,16.56,0,0,1,2,5.44c0,.26.72,5.33-1.7,8.68-3.06,4.22-9.76,3.93-19.83,3.49-2.88-.12-1.08-.17-14.39-1.44-25.13-2.4-14.65-.6-16.17-.86a11.74,11.74,0,0,0-7.06.43,10.2,10.2,0,0,0-3.77,3s-.32.43-.57.87c-1.47,2.54-1,5.86-.94,10,0,3.16.1,3.22.09,5.78,0,5.39-.35,5.24-.17,7.32.3,3.65,1.26,3.72,2.55,9.45.76,3.37,1.14,5.06.94,7.4a21.12,21.12,0,0,1-2.22,7.24c-1.24,2.79-1.82,3.16-4,7.06-2.27,4.08-3.41,6.12-4,8.3a18.35,18.35,0,0,0,.51,10.09,17.88,17.88,0,0,0,6,9.95,19.33,19.33,0,0,0,7.66,3.58,31.55,31.55,0,0,0,4.17.65l.85.06c1.27.08,2.19.06,2.38.05.85,0,3.88.09,12.89.51l7.45-.51c5.29.85,9.57,1.47,12.43,1.88,6.85,1,8.55,1.09,12.93,1.87,1,.18,4,.89,8.26,1.73l2.47.48c5.86,1.11,11.43,1.34,15,2,6.91,1.38,5.83,2.16,16.17,4.77,1.8.45,2.05.48,3.47.84a62.13,62.13,0,0,1,9,2.73c2.24.95,1.86.19,8.51,5.11a24.94,24.94,0,0,0,6.64,3.57c2.91,1,4.14.82,6.3,2.22,2.52,1.63,2.76,3.15,4.08,3.23s3-1,5.41-6.68c.54-1,1.34-2.49,2.29-4.3,3.73-7,5.59-10.51,6.94-13.36a97.91,97.91,0,0,0,7.66-23c.7-3.57.74-5,1.79-9.61,1.26-5.61,2.18-7,3.57-12.69,1-3.82,1.39-6.56,2.13-11.06,1-6,1.07-8.05,2-14.81.56-4.33,1.36-10.41,2.72-17.7.78-4.16,1.88-10,3.92-17.36.5-1.82,1.52-5.44,5.95-18,5.83-16.45,6-15.79,9.62-26.47,1.5-4.47,3-9.1,5.79-17,2.31-6.51,2.05-5.48,2.89-8,3.46-10.4,4.84-19.12,6.3-28.59.56-3.66.84-5.49,1-7.49a80.71,80.71,0,0,0-.85-20.6c-.39-2.47-.48-4.22-.55-4.79-.71-5.77-.8-14.42,2.93-36.57,3.26-19.39,3.84-23.7,5-27.45,1.07-3.5,2.1-7,3.18-10.51,2.19-7.1,2.6-8,2.9-10,.55-3.94.32-7-.34-13.11-1.64-15.07-2.4-16-1.54-17.19,2.29-3.2,12-2.82,43.24,11.66A77.54,77.54,0,0,1,387,53.17c6.2,7.22,9.4,13.65,14.81,24.51a190.21,190.21,0,0,1,8.43,19.41,116.31,116.31,0,0,1,4.85,15.82c1.63,7.45,1.61,11.71,2.3,20.18.79,9.79,1.18,8.52,3.19,25.65,2.54,21.73,1.72,22,3.7,36S426.91,207,429,221.55c2.32,15.84,3.06,27.88,3.58,36.51a248.71,248.71,0,0,1,.51,26.43c-.07,1.44-.16,3.08-1.28,15.32-1.58,17.38-2.37,26.06-2.94,30.38-2.11,16.33-3.22,15.77-4.08,27.32-.28,3.79-.36,9.93-.51,22.21-.13,10.89,0,13.49.77,17.11,1.27,6,2.6,12.19,7.65,16.72,2.71,2.42,4.55,2.65,9.07,6.9a70.63,70.63,0,0,1,5.49,5.87c1.91,2.25,2.46,3.16,5.74,7.4,3.79,4.9,3.83,4.72,4.73,6,1.17,1.68,2.87,4.58,5,13.28,1.38,5.67,2,10,3.11,18.55.7,5.23,1.21,9.1,1.62,14.47,0,0,.44,5.82.59,12.26.07,2.87.11,4.31.09,6,0,.63,0,2.13,0,4.17a36.61,36.61,0,0,0,.76,5.28c.1.5.21,1,.52,1.1.49.13,1.15-1,2-2.47,1.87-3,1.91-2.66,2.81-4.25a39.61,39.61,0,0,0,3.49-9.19c1.72-6.5,2.58-9.75,3.66-15.49,1.4-7.49,1-7.52,2.21-12.85,1.26-5.61,1.84-6.21,3.15-11.92,1.17-5.11,1.09-6.31,2.21-12.59,2.28-12.73,3.25-11.43,3.66-17.11a55.07,55.07,0,0,0-2.34-19.15,40.16,40.16,0,0,0-3.45-9.32c-.66-1.23-2.43-4.33-8.93-10.85a137.3,137.3,0,0,0-13.66-12c-8.5-6.5-8.46-5-11.62-8.3-6.78-7-8.7-15.54-9.57-19.66-1.08-5-1-8.81-.9-13.66.15-6.42,1-13.64,5-29.36,2.78-10.94,3-10,5.74-20.42a275.73,275.73,0,0,0,6.52-30.77A258.89,258.89,0,0,0,461.85,229c.18-3.53.07-2.41.26-31.92.06-10.24.11-16.24-.64-24.89-.18-2-.64-5.61-1.53-12.77-1.61-12.86-2.42-19.29-3.07-22.34-1.8-8.46-4.26-14.33-7.4-21.83a144.06,144.06,0,0,0-12-23.36,148.18,148.18,0,0,0-16-20.42,127.72,127.72,0,0,0-18.64-17c-5.41-4-9.52-6.33-17.49-10.85-2.74-1.56-5.18-2.84-7-3.82-7.57-4-7.24-3.55-15.19-7.67a58.52,58.52,0,0,0-6.77-3.2c-4.08-1.56-7.56-2.9-8.93-1.53-1,1,.11,2.73,1.27,7.66,1,4.33.65,4.8,1.37,8.09.55,2.55,1.27,4.53,6.8,15.66,4.06,8.15,4,7.82,4.73,9.57a59.73,59.73,0,0,1,3.45,14.43c2,13.84,1.2,16.06,2.8,27.7,1.12,8.1,1.67,8.39,2.94,18,.94,7.16,1.42,12.95,1.66,16.34,0,0,1.52,21.54-.38,40.72-.15,1.46-.44,4.36-1,8.17-.4,2.61-1.12,6.84-2.56,12.9-1.31,5.52-2.16,8.11-3.83,14-2.43,8.62-3.26,12.46-4.59,17.49-3,11.38-6.23,19.8-12.64,36.64-2.71,7.11-6,15.62-10.85,26.81-5.15,11.76-9.88,21.42-12.9,27.57-4.24,8.65-6.73,13.35-10.34,22-1.93,4.62-2.54,6.44-5.23,13.4-4.3,11.13-5.15,12.74-10.47,26-9.33,23.33-9,24.08-14,35.24-3.88,8.56-4,7.83-8.3,17.49-2.61,5.81-6.59,11-8.55,17.1a20.39,20.39,0,0,1-5,7.41c-.77.75-1.67,1.42-2.47,1.19a1.73,1.73,0,0,1-.94-.85,4.65,4.65,0,0,1-.17-3.49c.95-3.49,1.13-7.16,2.13-10.64.92-3.19,1.45-6.47,2.21-9.7,2.32-9.81,2.88-13,4.34-19.32,1.38-5.95,3.25-14.05,6.39-23.91a233,233,0,0,1,11.31-29c2.72-5.69,2.68-4.91,7.15-14,1.16-2.36,4.78-9.78,9.88-21.28,3-6.89,3.33-7.78,7.91-18.46,6.36-14.83,9.54-22.24,11.83-26.9,4.39-8.9,4.43-7.74,13.36-24.93,4.94-9.5,7-13.84,9.11-19.24,1.38-3.54,2.64-7.34,5.1-14.81,3.28-9.92,4.91-14.88,6-18.55,3.33-11.62,4.62-20.54,6.3-32.17,1.73-12,2.6-18,2.55-25.19,0-2.86-.63-10-1.87-24.17-.56-6.42-1-10.78-1.62-18.83-.49-6.19-.4-7.85-.89-11.94-.83-7-1.76-9.89-2.68-15.19-2-11.76,0-12-1.53-20.3a56.92,56.92,0,0,0-13.66-26.29c-5.9-6.25-10.73-8.05-12.77-8.68s-6.32-1.67-6.51-1.15c-.06.17.4.47.79.76,0,0,1.51,1.13,3.66,4.87,4.8,8.37,3,29.54,3,29.54-.12,1.37-.89,10.22-1.73,10.21-.36,0-.55-1.65-.83-3.38-.42-2.71-2-12.49-6.38-20.68-.65-1.23-1.58-2.63-3.45-5.43a98.7,98.7,0,0,0-9.12-12.26c-1-1.06-4.28-4-10.92-10-5.18-4.65-7-6.27-7.34-6s1.21,2.28,3.7,6c0,0,2.79,4.16,7,11.17.66,1.1,3.8,6.33,7.34,13.47,2.68,5.41,4,8.11,5.11,11.49A73.62,73.62,0,0,1,315.68,73c1,6.94.43,6.93,1.47,13,.51,3,.87,6,1.34,9.06.22,1.44.12,2.91.38,4.34a4.14,4.14,0,0,1-.06,2.62c-.25.54-.7,1.38-1.21,1.34s-.59-.48-.9-1c-.51-.9-1.25-1.66-1.79-2.55-2-3.4-4.37-6.59-6.44-10-1.61-2.62-3.86-6.09-8.36-13-5.38-8.28-8.06-12.42-9.9-14.81a90.69,90.69,0,0,0-13-14.26c-3.58-3.12-7-5.42-14-10-6.76-4.51-11.56-7.27-12.68-7.91-6.35-3.64-13.44-7.21-13.62-6.9s1.86,1.36,5.62,3.92A137,137,0,0,1,255.21,36c2.75,2.35,1.57,1.73,10.9,11.23,4,4.09,4.83,4.81,7,7.15,3.22,3.52,5.35,6.23,8.08,9.7,6.7,8.54,11.21,15.37,12.68,17.62C296,85,297.32,87,299,90c4.51,7.9,7.11,14.47,10.22,22.38,1.57,4,1.5,4.12,4.76,12.6,2.46,6.39,3.69,9.59,3.75,9.7a41.64,41.64,0,0,1,3.91,10.39c.35,1.58.39,2.28.17,2.38-.55.23-2.44-3.4-5.53-8.51-.58-1-2.2-3.48-5.45-8.51-3.63-5.64-6.56-10.19-10-14.73a139.24,139.24,0,0,0-11.65-13.53c-4.91-5.12-8.84-8.58-13.88-13-4.65-4.1-8.27-7.06-12.25-10.3-3.23-2.62-7.84-6.38-14.13-11.15-1.37-1-7.66-5.79-16.23-11.74C229,53.33,226,51.31,221.91,48.7c-3.66-2.32-6.2-3.79-10.78-6.44-6.83-4-10.47-6.06-10.73-5.69s2.23,2.39,4.41,4.22c3.48,2.92,6.07,4.76,8.55,6.57,4.23,3.09,7.33,5.49,10.47,7.92,3.88,3,6.76,5.33,8.68,6.89,3.93,3.18,5.89,4.78,8.43,7,.7.62,3.37,3,6.95,6.51,3.23,3.17,5.14,5.23,8.68,9C268.48,97.36,267.91,96.35,271,100c4,4.76,4.35,5.76,8.51,10.38,2.63,2.93,4,4.23,7.49,7.92,3.77,4,6.69,7.34,8.51,9.44l6,8.77a58.58,58.58,0,0,1,5.87,10.38c1.92,4.38,2.12,6.3,4.22,12.26,1.24,3.54,1.66,4.26,5.61,13.66,3.83,9.09,5.74,13.63,6.64,16.08,2.07,5.63,3.34,10.6,5.87,20.56,2,7.79,3.77,14.85,5.49,24.51,1.25,7,1.91,12.2,2.56,17.36.93,7.44,1.94,15.48,2.42,25.66.46,9.87.22,17.26,0,23.23a294.62,294.62,0,0,1-3.7,39.07c-.69,4.15-2.25,11.45-5.36,26-2.21,10.33-3.35,15.64-5.11,22.76-2.34,9.49-4,16.34-7.15,25.45a185.64,185.64,0,0,1-7.66,19.4c-3.64,7.87-6.81,13.18-12,21.88-4.38,7.35-7.86,13.17-13.36,20.76-2.35,3.25-7,9.48-13.53,16.85-4.5,5.09-7.88,8.41-14.64,15.07-11.47,11.29-6.63,5.3-9.19,8.08a16.11,16.11,0,0,1-5.53,3.83c-.64.26-2.63,1.09-3.07.51s1.06-2.47,1.54-3.06c3.49-4.35,5.82-9.53,9.1-14,1.64-2.25,4.1-6.86,9-16.09,4.7-8.81,7.54-14.13,10.81-21.7,1.89-4.37,3.33-8.28,6.21-16.09,4-10.81,6.85-19.21,7.83-22.12,6.13-18.13,9.19-27.2,11.41-38,.45-2.2,1.21-6.91,2.72-16.34,2.81-17.49,4.21-26.23,5.28-34.55.75-5.9,2.83-23,3.7-44.9.4-10.13.15-11.44.51-33.06.37-22.43.72-25.87.77-33.32.08-13.4.76-35-4.9-55.87-2-7.34-3.21-9-4.17-15.49-1-6.86-.6-11.53-4-16.85a23.48,23.48,0,0,0-5.11-5.62c-13.35-11.4-25.83-21.61-30.26-25.28-3.69-3.06-6.94-5.85-12.76-10.46a127.14,127.14,0,0,0-11.43-8.37A83.23,83.23,0,0,0,226,83.11c-4.11-1.89-6.47-2.94-9.94-3.39-2.73-.35-6.15-.78-9.53,1-2.35,1.26-3.61,3-5.44,5.62-1.63,2.29-2.28,3.87-4.18,7.83,0,0-1.61,3.38-4.25,8.6-4.59,9.06-6.89,13.59-10.64,17.53-1.88,2-3.31,3.05-5,5.74-1.08,1.76-1.19,2.46-3.38,7.92-2.74,6.83-2.95,6.71-3.32,8.55-.51,2.56-.43,4.69-.25,8.94.14,3.65.41,4.13.57,7.4a68,68,0,0,1-.26,10.22A73.34,73.34,0,0,1,168,181.34a59.83,59.83,0,0,1-2.55,8.11c-1.16,2.8-1.61,3.11-5.37,9.83-1.14,2-3,5.44-5.68,9.83a28,28,0,0,1-4.53,5.55,9.56,9.56,0,0,1-3.19,2.17c-1.12.42-1.58.3-2.62.77a7.7,7.7,0,0,0-2.81,2.29c-1.47,1.81-1.3,2.89-2.49,5.62-.24.56-.22.46-3.11,5.26-1.64,2.74-2.3,3.86-3.48,5.55-1.59,2.27-2.59,3.4-4.17,4a5.74,5.74,0,0,1-2,.42c-2.59,0-4.1-1.83-5.37-1.1-.28.16-.14.22-.76.76a6.32,6.32,0,0,1-2.13,1.28,5,5,0,0,1-2.13.17c-4.85-.51-7.48.47-12.42-1.19-2-.68-3-1-3.75-1.7-3.4-3.29-1.82-10.33.26-14.3a9.89,9.89,0,0,1,2.64-3.4,10,10,0,0,1,7.49-1.71c3.68.56,5.92,2.93,7.83,4.94a18.59,18.59,0,0,1,4.17,7.06c.42,1.35,1.39,4.4.08,5.54a2.44,2.44,0,0,1-1.7.42c-2.35,0-4.64.72-7,.94-4.15.39-3.69,1.09-7.74,1.53s-6.62.72-8.34-.94-1.56-4.61-1.45-5.95c.48-5.67,5.29-9,6-9.45a14.15,14.15,0,0,1,6.81-2.3,14.54,14.54,0,0,1,13.62,7.92c1.82,3.89,1.38,8.6.25,8.93-1.29.39-3.74-5-4.51-4.59-.33.15-.26,1.33.26,2.21,1.08,1.83,3.86,1.9,6.29,2,.76,0,7.88.11,11-3.32a13.45,13.45,0,0,0,1.42-2c.82-1.46,1.33-3.11,1.14-3.2s-1.14,1.53-1.88,2.63c-1.19,1.8-4.17,6.2-8,7.41-4.63,1.46-9.29-2.13-14.38-6-1.86-1.44-3-2.63-3.49-4.35-.7-2.44.25-4.78.85-6.21a17.21,17.21,0,0,1,3.24-4.85c1.62-1.89,3.41-5,7-11.15,1.79-3.1,2.4-4.46,5.36-10.3,7.61-15.05,7.12-13.09,8.25-16,3.75-9.6,4.93-20.13,5.87-20,.33,0,.38,1.35,1.2,1.54.65.15,1.1-.6,1.53-.43.81.31.31,3.41.25,3.75a32.51,32.51,0,0,1-1.78,5.44,12.89,12.89,0,0,1-1.54,3.41c-2,1.89-5.76,1.28-5.87.68s2.68-.5,4.68-2.64c3.19-3.41,1.86-9.61,1.7-9.62s.06,3.44-.93,3.66c-.41.09-.93-.63-1.94-2a12.24,12.24,0,0,1-.78-1.15c-1.36-2.21-5-5.7-5.2-5.53s6.17,7.08,5.54,7.75-7.32-4.48-7.24-4.6a14.17,14.17,0,0,1,6.81,6c1.34,2.39,1.27,4.28,1.62,4.25.67-.05,2.35-7.49-.26-14.89-2.13-6.07-6.51-10.34-5.19-11.83.12-.14.31-.27,1.28-.43a15.8,15.8,0,0,1,6.64.43c5.28,1.57,11,5.49,11.91,6.13l1.45-10c-.26-.21-.64-.51-1.11-.85a25.57,25.57,0,0,0-7.91-3.75,23,23,0,0,0-8.09-.93c-3.8.28-4.38,1.38-5.45.85-3.58-1.8-.78-16.28,3.66-27.66a126,126,0,0,1,8-16.26c4-7.09,5.05-7.46,7.83-13.1A27.89,27.89,0,0,1,155,72.91a41,41,0,0,1,5.53-5.27c1-.87,1.72-1.55,2.32-2.14,2.25-2.19,3-3,4.41-4.33a56.42,56.42,0,0,1,4.44-3.74c3.63-2.71,6.5-4.85,10.37-5.28,4.6-.51,8.3,1.67,10.38,2.89,2.93,1.73,4.71,3.74,7.66,7.07,2.37,2.67,2.24,3,5.19,6.55,2.43,2.92,3.63,4,7.06,7.74,5.56,6,5.19,6,8,8.94a84.55,84.55,0,0,0,17.54,13.79c3.12,1.83,2.12,1,9.44,4.72,9.56,4.92,14.6,7.52,20.68,12,4.52,3.33,8.87,7.16,10.6,8.68,2.22,2,3.39,3,5,4.56,4.21,4.16,7.78,7.68,10.47,13.27a33.81,33.81,0,0,1,2.72,8.17,28.86,28.86,0,0,1,.34,10.3,29.24,29.24,0,0,1-1.62,6,23.13,23.13,0,0,1-4.42,7.91,14.27,14.27,0,0,1-3.75,3.07,16.07,16.07,0,0,1-3.49,1.27c-3.33,1-5.87,1.45-5.87,1.45a99.85,99.85,0,0,1-10.47,1.62,86.68,86.68,0,0,1-19.15-.51c-5.15-.65-5.71-1.12-10.38-1.45-1.76-.12-3.13-.16-10.93-.09-10.8.1-10,.19-12.77.13-6.3-.12-6.75-.48-12.72-.47-2.48,0-4.92.08-8.34.17-4.25.12-6.37.18-8.09.26a46.59,46.59,0,0,1-5.79.17c-3.6-.29-5.88-1.28-6.12-.77-.12.25.29.76,2,2a46.3,46.3,0,0,0,6.47,4.17c4.24,2.26,6.39,3.39,7.58,3.74a19.78,19.78,0,0,0,6.21.85c3.18-.12,5.91-1.11,5.87-1.36s-1.81.1-4.94.09a47.73,47.73,0,0,1-5.36-.35,30.49,30.49,0,0,1-10.64-2.55c-5.33-2.36-9.19-6-8.76-6.81.2-.39,1.26,0,2.3-.93.54-.48.42-.72.93-1.11s1.19-.48,2.73-.51,2.42,0,2.55,0c2.71,0,6.38-2.6,6.81-5.79,0-.27.36-3-1.36-3.91-1.51-.8-3.42.5-3.66.68a5.29,5.29,0,0,0-2,3.06,4.7,4.7,0,0,0,0,3.58c.87,1.58,2.77,1.33,3.23,2.81.29.91-.35,1.29-.17,2,.48,1.73,5.61,1.9,14.64,1.7,8-.17,7.67-.38,9.87-.17,4.09.41,5.71,1.19,9.62.86a25.45,25.45,0,0,1,4.6-.34c3.84.21,6.28,1.89,6.38,1.7s-4.11-2.87-9.7-5.62c-3.18-1.56-5.84-2.7-7.49-3.4-2.87-1.23-5-2.06-7.66-3.07-13-5-10.91-3.92-13.7-5.19-4.7-2.13-7.79-4-8.69-3.06-.3.33-.15.78,0,2,.54,4.41-.44,6.48.18,6.72.9.36,4.57-3.56,3.65-6.12-1.26-3.57-10.93-3.33-11-3.07s2.67.36,8.42,2c3.74,1.1,6.57,2.18,8.68,3,3.28,1.26,5.78,2.36,7.58,3.15,3.54,1.57,5.2,3.13,5.7,2.64s-.61-1.78-1.7-4.34c-1.95-4.58-2-8.28-2.22-8.26,0,0,2.05,6.67.51,7.49-.61.33-1.58-.38-2.21-.85-3.59-2.69-4.6-7.48-4.59-7.49s2.74,6.2,1.61,7c-.84.58-3.57-2-4.25-2.64-3.74-3.52-5.42-7.41-5.62-7.32s3.25,6.81,2.38,7.41c-1,.72-8.1-7.6-8.42-7.32s3.14,3.7,2.38,4.77c-.64.88-3.85-.4-4.76-.77-3.52-1.41-5.58-3.71-5.71-3.57s1,2.84,3.32,3.74a6.27,6.27,0,0,0,.94.26c1.64.26,9.23,3.16,27,10.59l-.43-4.85c.2.23.48.56.85.94a19.24,19.24,0,0,0,4.3,3.27,136.94,136.94,0,0,0,15.4,7.07A99.23,99.23,0,0,0,234.23,182a65.9,65.9,0,0,0,7.24,1.4,72.84,72.84,0,0,0,8.68.56c8.13.17,12.21.23,12.65-1.1.13-.39,0-1-3.13-4-3.56-3.41-6.31-5.38-8.9-7.5-3.37-2.75-2.61-2.59-6.39-5.81A103,103,0,0,0,234,157.79a88.14,88.14,0,0,0-11.36-6.45C219.89,150,217.24,149,212,147c-3.45-1.32-5.16-2-7.6-2.81-4-1.35-6.63-2.05-11.87-3.45-6.16-1.63-7.77-1.87-9.83-1.78a21.2,21.2,0,0,0-6,1.15L175,152.36c.37-.17.9-.39,1.53-.64a31.81,31.81,0,0,1,5.62-1.53c.86-.13,3.23-.41,9.45,1.15,1.65.41,3.44.93,10.21,3.32,5.28,1.87,7.93,2.8,9.06,3.32,1.76.79,2.48,1.23,11,6.25,4.51,2.67,6.78,4,7.41,4.34,3.28,1.77,4.78,2.35,11.74,5.49,9.49,4.28,8.17,3.87,11.74,5.37,8.69,3.63,9.15,3,12.26,5.1,3.7,2.48,2.68,3.11,9.32,9.07,4.1,3.68,5.4,4.25,8.72,7.57a70.32,70.32,0,0,1,6.13,7.06c3.12,4.11,6.53,8.58,8.77,15.11a44.56,44.56,0,0,1,2.17,11.49A65.76,65.76,0,0,1,299,252.7c-.34,1.92-1.33,5.75-3.32,13.41-2.65,10.2-3.79,13.65-5.24,17.23-1.32,3.28-1.28,2.63-3.06,6.89-2.6,6.23-2.89,8.11-5.49,15.07-3.1,8.32-3.28,7.25-4.85,12.25-1,3.32-.91,3.63-3.32,13.15-1.91,7.57-2,7.51-2.55,10.09a71,71,0,0,0-1.66,14.3c-.05,9.73,2.42,11.36,1.15,19.27a59.58,59.58,0,0,1-2.17,8.55,93.81,93.81,0,0,1-3.71,9.07c-2.73,6.16-4.1,9.24-5.1,10.85a53,53,0,0,1-8,9.83c-3,2.87-3.68,2.87-6.9,6.13a38.78,38.78,0,0,0-6,7.15A33.6,33.6,0,0,0,234.62,436c-1.4,5.46-.3,5.53-1.66,11.87a37.51,37.51,0,0,1-4.22,11.62,29.08,29.08,0,0,1-4.08,5.36,31.2,31.2,0,0,1-7.79,5.62,62.62,62.62,0,0,1-13,5.62c-3.49,1.05-8.9,2.38-14.81,3.83-2.32.56-5.51,1.33-7.4,4.08a8.7,8.7,0,0,0-1.41,3.83c-.56,4,1.51,7.19,2.56,8.81a20.43,20.43,0,0,0,7.15,6.51,30,30,0,0,0,13.15,4.09,31.77,31.77,0,0,0,15.57-2.3,32.92,32.92,0,0,0,12-9.07c2.29-2.56,6.1-6.82,7.79-13.27.9-3.47.31-4.15,1.4-12.9.41-3.3.79-5.56,1.41-9.19.8-4.79,2-11.19,4.72-23.74,2.26-10.33,3.39-15.49,4.21-18,2.61-8,5.51-12.88,8.68-18.77,3.81-7.06,9-17.32,14.81-30.64a65.16,65.16,0,0,0,4-6.64c3.08-5.9,2.68-7.29,5.74-13.53,2.57-5.22,3.44-5.46,5.24-10.08,1.12-2.9,1.15-3.75,2.42-6.51,1.75-3.8,2.89-4.76,4.47-7.79,1.78-3.41,2.15-5.67,3.19-9.45,1.4-5.07,1.72-4.58,5.87-15.95,2.62-7.16,4.86-13.31,7-20.94.85-3,.86-3.35,3.57-14.81,3.79-16.06,5.72-24.2,7.4-29.62,3-9.49,3.36-8.43,5.88-17.1,2-6.91,3.08-12.31,5.23-23.11,2-9.93,3-14.89,3.83-21.7a174.46,174.46,0,0,0,1.6-20.43c.06-4.33-.11-5.07-1.09-25.15-.41-8.44-.62-12.71-.64-14.8-.08-9.35.52-11,.45-21.07a123.7,123.7,0,0,0-.77-15.89c-.26-2.12-.4-2.67-2.42-13.66C332.4,49,332.17,47.49,332,46.53c-.8-5.35-2.6-16.38-1.66-16.59.66-.16,2.41,5.05,2.94,6.63a71,71,0,0,1,2.17,8.3c1.28,5.89,1.68,8.1,2.62,12.51,1.2,5.69,2.21,9.91,2.42,10.79.72,3,1.47,5.91,2.94,11.55,1.62,6.27,1.58,6,2.49,9.51,2.19,8.57,2,8.7,3.63,14.75,1.7,6.43,3.37,12,3.77,13.28,2.08,6.83,2.25,6.7,2.87,9.51.45,2,.63,3.3,1.79,12.7.66,5.31,1,8,1,8.36a145.36,145.36,0,0,1,.51,15.26c0,5.25-.14,9.09-.38,15.51-.2,5.3-.33,8.82-.58,12.7-.71,11.3-1.09,16.95-2.48,22.91a77.44,77.44,0,0,0-1.6,8.11,78.38,78.38,0,0,0-.7,8.42c-.48,12-.27,12.84-.7,17.69-.36,4-.86,6.78-1.79,12-.61,3.39-.9,4.52-3.51,16.53-1.55,7.08-2.32,10.66-2.62,12.32-1,5.73-1,7.36-2.11,12.38-.72,3.42-.9,3.51-2.49,9.77-.7,2.78-2.44,9.65-3.95,17.1-1.16,5.68-1.29,7.34-2.17,12.19-1.18,6.48-1.76,8-6.64,27.45-3.76,14.92-4,16.4-5.75,22.34-1.49,5.14-1.72,5.51-4.53,14.75-3.69,12.17-3.75,13.06-5.93,20.1-2,6.55-4.25,12.77-8.69,25.21-4.19,11.78-6.29,17.67-8.1,22-3.07,7.38-4.24,9.27-9.19,21.19-2.41,5.79-3.62,8.69-4.73,11.55-3.08,7.95-3.34,9.51-4.91,12.32-.89,1.59-1.41,3.36-2.24,5-.71,1.41-1.31,2.42-.89,3.32a2.72,2.72,0,0,0,2,1.21c2.34.42,4.54-1.53,5.74-2.62,6.87-6.23,9-9.19,9-9.19,6.05-8.37,9.08-12.56,10.92-15.64,2.81-4.7,2.72-5.06,8.55-16.08,5.75-10.87,6.1-11,10.34-19.21,3.15-6.1,5.63-10.9,8.56-17.43,2.79-6.25,2.74-6.8,8.1-20.11,5.74-14.21,6.37-15,8.36-20.74,2.46-7.08,2.58-9.26,5.75-21s4.27-14.38,6.94-23.72c4.56-16,7.15-28.62,8.85-36.94,1.09-5.37,3.11-17.82,7.15-42.72,2.56-15.83,3.19-20,3.91-25.71,1.2-9.46,1.79-16.22,2.89-29.1,1.53-17.83,2.3-26.74,2.22-32.85a149.88,149.88,0,0,0-3.24-31.49c-2.6-12-5.46-17.35-10.38-36.6-1.79-7-2.69-10.5-3.06-12.59-.92-5.1-1.17-8.64-3.07-14.13-.83-2.4-.95-2.22-2.21-5.45-4-10.17-3-12.6-6.47-20.59-2-4.63-2.58-4.4-4.25-8.86-2-5.18-3.7-12.2-2.73-12.59,1.28-.52,8.24,10,11.75,22.3,1,3.38,1.23,5.37,3.74,14.8,1,3.92,1.69,6.16,2.72,9.88,5,18,5.51,20.85,8.52,30.81,1,3.2,2.45,8,4.42,13.78a108.52,108.52,0,0,1,2.55,11.07c1,5.77,1.16,9.23,1.88,16.85.88,9.42,1.12,9,1.87,16.85.94,9.93,1.2,17.55,1.36,22.47.17,5.27.46,14.45,0,26.55-.09,2.51-.49,12.37-1.87,25.36-.78,7.33-1.55,12.68-2.73,20.77-.7,4.89-.77,5-3.57,22.81-2.22,14.07-2.38,15.25-3.06,18.89-1.47,7.76-2.83,13.49-4.09,18.72-2.84,11.83-5.46,20.88-7.66,28.43-2.88,9.88-3.21,10.33-6.3,21.11-2.33,8.16-2.42,8.9-4.59,16.34-3.11,10.64-3.47,11-5.79,19.23s-2.15,8.55-4.59,17.19c-2.07,7.3-3.84,12.85-5.11,16.85-3.45,10.82-3.75,10.77-6.81,20.43-3.44,10.84-3.08,11-6,19.4-2.81,8.27-4.22,12.4-5.1,14.47-2,4.68-3.58,7.49-2.9,8,.86.64,4.63-2.82,7-5.45a40,40,0,0,0,4.94-7c2.53-4.3,5.31-8.45,7.83-12.76,8.09-13.87,7.56-12.43,10-17,3.18-5.88,3.13-6.54,8-16.68,5.95-12.38,7-13.37,12.6-25,4.09-8.47,6.94-15,9.19-20.09,4.55-10.4,7.9-18,11.74-28.6,4.83-13.25,7.93-24.25,9.7-31s3.87-14.68,5.62-25c2.76-16.28,3.08-28.9,3.41-44.42.14-6.61.1-12.82.09-13.78,0,0-.06-8.51-.43-17s-1.18-17.25-4.77-51.15c-1.68-15.86-2.26-20.31-2.55-22.47-1.88-14-2.87-17.27-4.09-28.08-1.61-14.29-.32-12.42-1.79-24.77-2-17.1-4.2-18.16-5.61-34.34-.51-5.82-.55-9.41-1.79-15.83-1-5-1.49-5.69-3.7-15.7-2.17-9.79-2.28-11.93-2.3-13.4-.05-3.47.38-5.13-.13-9.32-.32-2.66-.81-4.6-.25-4.85s2.21,1.84,3.57,3.83A161.93,161.93,0,0,1,391.38,62c1.13,2.06.73,1.17,5.75,9.32,7.54,12.25,11.3,18.37,15.44,26.17,3.14,5.89,5.7,11.25,7.41,14.81,2.76,5.76,2.89,6.32,6,12.76,3.75,7.79,5.63,11.69,7.15,14.43,2.81,5.09,3.78,6.21,4.85,9.57a53.37,53.37,0,0,1,1.79,10c.45,3.69.62,6.24.89,10.21.71,10.39.51,6.26,1,14.17.35,5.38.76,12.11,1.28,22,.3,5.79.75,14.71,1.53,26.3.48,7.2.8,11,2.17,16.21a69.26,69.26,0,0,0,4.85,12.77A67.7,67.7,0,0,0,461,275.55a82.51,82.51,0,0,0,7.66,7.66c5,4.65,8.4,7.34,15.83,13.41,4.35,3.55,8.62,7.22,13,10.72a65.8,65.8,0,0,1,7.53,6.43c3,3.08,3.36,4.3,7.49,9.36,4.28,5.23,4.7,4.95,7,8a47.52,47.52,0,0,1,6.64,12.76,47,47,0,0,1,3.4,19.41c-.35,6.4-2.13,11.14-5.45,19.91-.41,1.1-.51,1.32-4.08,9.7-7,16.51-7.39,17.42-8,19.24-1.9,5.66-3.65,10.86-4.26,18-.54,6.36.39,7.47-.51,15a67.26,67.26,0,0,1-2.72,13.11c-1.28,4-1.31,2.71-4.26,10.55-1.48,4-2.24,6.32-4.25,9.36s-2.65,4.51-3.58,4.43c-2.23-.21-4-8.48-3.23-16,.23-2.4.45-2,1.87-9,1.28-6.31,1.22-7.22,2.39-13.28,1.48-7.74,1.92-8,2.89-13.45a135.7,135.7,0,0,0,1.7-14.3c1.32-23.76-10.72-42.21-10.72-42.21-4.19-6.42-9-11.1-17.19-19.06-1.18-1.14-2-1.95-11.07-10-13-11.68-19.54-17.52-22-19.58-15-12.81-15.92-11.94-19.58-16.68-6.86-8.89-8.74-20.84-9.7-25.36-.74-3.51-1.06-6-1.49-9.49-2.7-21.75-1.23-38.74-5.55-51-.83-2.34-1.86-4.85-1.86-4.85a106,106,0,0,0-6.31-13c-3.58-6.11-3.78-4.67-6.45-9.51-3.54-6.42-2.6-7.89-6.45-14.3-1.87-3.11-4.25-6.36-5.1-7.53-2.61-3.56-3.24-4-4.92-6.62-2.87-4.43-2.21-4.93-4.25-7.66-.78-1-1.39-1.65-8.34-7.15-3.24-2.55-4.85-3.83-7.83-6.12-7.18-5.53-6.74-5-7.15-5.45-4.32-4.53-2.76-7.88-7.66-22.64a40.82,40.82,0,0,1-1.71-6.47c-.78-4.52.05-5.45-.51-9.19-.74-5-2.38-5-3.4-10.21a27.2,27.2,0,0,1-.17-9.7,100.11,100.11,0,0,1-.85,13.78c-.3,2.3-.53,3.39-.9,5.56-1.85,11-1.2,13.71-2.68,23.1-.75,4.77-.72,2.8-2.87,13.79-2.07,10.56-1.94,11.58-3.13,16.15-1.94,7.46-2.57,5.87-5.87,16.21s-3.32,14-6.76,20.81a56,56,0,0,0-2.56,5.49c-1.19,3-1.65,5-3.06,10.6s-2.12,8.35-2.43,9.32c-1.42,4.43-2.17,5.28-4.21,10.85-1.4,3.8-2,6.08-2.81,8.55a164.63,164.63,0,0,1-9.44,23.11,177.66,177.66,0,0,1-9.45,16.72c-4.12,6.55-7.8,11.58-10,14.43-3.83,5.07-4.1,4.91-8.94,11.1-7.15,9.15-6.9,9.91-11.36,15.19a128.1,128.1,0,0,1-13.53,13.54c-4.3,3.88-8.1,6.88-15.7,12.89-6.93,5.47-10.39,8.21-13,9.83-5.18,3.19-5.54,2.61-16.22,8.42-6.1,3.33-9.15,5-11.1,6.26-3.82,2.48-5.81,4.15-9.7,5.62a32.64,32.64,0,0,1-7.54,1.78c-5,.71-12.32,1.73-19.14-1.91-2.3-1.23-5.76-3.07-6.52-6.51-.62-2.85.91-5.38,2.81-8.43,1.69-2.7,3.9-5.41,8.56-9.44,4.18-3.62,7.73-6.7,13.4-9.58,7.15-3.63,11.91-4,13.66-4.08,3.07-.14,6.38-.24,8.17,1.91s1.07,5.5.38,8.55c-1,4.3-2.8,7.21-5.23,11a91,91,0,0,1-7.4,9.83c-2.95,3.37-3.69,3.7-4.73,5.75-.74,1.47-2.74,5.43-1.27,10.08a12.54,12.54,0,0,0,6.12,7.15,14.21,14.21,0,0,0,7.41,1.28c8.86-.31,12.85-1.36,19.4-1.92a52.54,52.54,0,0,1,16.85,1c1,.24,3.24,2.54,6.9,3.2,1.33.24,2.57.78,3.06.21s0-1.92-.32-2.56a2.5,2.5,0,0,0-.77-1,5.68,5.68,0,0,0-3.35-.78" transform="translate(-17.86 -16.77)"/></svg>